<svg viewBox="0 -13 154 154" fill="none" xmlns="http://www.w3.org/2000/svg">
  <g id="SVGRepo_iconCarrier">
    <g clip-path="url(#clip0)">
      <path d="M1.40582 94.0292C1.32577 97.532 3.08044 100.064 6.22049 100.975C7.5385 101.344 8.90084 101.528 10.2689 101.521H10.3166C15.933 101.506 23.2778 101.191 30.4391 98.8886C31.3055 99.4383 32.1662 99.9887 33.0214 100.54C35.0298 101.829 37.1058 103.162 39.1865 104.402C53.3063 112.821 68.5852 119.389 83.3617 125.743L86.1906 126.959C86.3849 127.049 86.585 127.125 86.7896 127.188C87.1415 127.296 87.5069 127.353 87.8755 127.357C88.3584 127.37 88.8335 127.234 89.2377 126.967C89.5753 126.713 89.8497 126.384 90.0414 126.006C90.2331 125.628 90.3364 125.211 90.3442 124.786C90.3719 124.498 90.3835 124.201 90.3945 123.911C90.3919 123.401 90.4513 122.892 90.5721 122.396C93.5759 112.603 95.6869 102.556 96.8793 92.3775L97.3176 88.4992C98.5068 78.0448 99.7359 67.235 99.8586 56.4767C100.018 42.4857 99.1207 28.3264 98.253 14.633C98.1026 12.2601 97.9535 9.88647 97.8063 7.51185C97.7243 6.13207 97.4951 4.76517 97.1233 3.43466C97.0051 2.86363 96.7644 2.32548 96.4183 1.85789C96.0717 1.3903 95.6281 1.00457 95.1181 0.727814C94.5649 0.501868 93.9697 0.39816 93.3732 0.423719C92.7767 0.449277 92.1924 0.603522 91.6598 0.875969C90.7347 1.27231 89.7735 1.64069 88.8439 1.99741C88.0485 2.30149 87.2532 2.6062 86.4675 2.93173C85.2209 3.44828 83.9705 3.9545 82.7193 4.46195C79.4269 5.79653 76.0164 7.17723 72.7395 8.71713C68.9397 10.502 65.0001 12.596 60.6967 15.1203C50.0093 21.3871 39.5751 27.5357 29.4106 33.8565C27.7258 34.9896 25.7493 35.6038 23.7231 35.6238C19.5785 35.6959 15.4469 35.9837 11.4514 36.2618C3.72006 36.8005 2.41803 39.5944 2.28891 46.073C2.26761 47.134 2.2747 48.1957 2.28245 49.2567C2.2902 50.3054 2.29729 51.3554 2.27599 52.4041C2.02163 65.1961 1.73248 79.6964 1.40582 94.0292ZM28.423 66.3422C28.4417 67.2142 28.4563 68.0861 28.4724 68.96C28.5861 75.4374 28.7045 82.1284 30.1434 89.1398H11.8569C11.8511 89.1035 11.8453 89.0664 11.8388 89.03C11.7399 88.5018 11.6782 87.9671 11.6543 87.4297C11.5652 82.8971 11.4811 78.3638 11.4024 73.8299C11.2952 67.8171 11.1813 61.8044 11.0609 55.7912C11.0279 54.2539 10.9261 52.7017 10.8266 51.1995C10.7621 50.1774 10.6917 49.1547 10.6452 48.1314C10.6091 47.3393 10.6181 46.542 10.6277 45.6993C10.6277 45.5044 10.6323 45.3095 10.6336 45.1146L28.8019 44.0185C28.756 46.0866 28.6933 48.1626 28.6307 50.2437C28.4712 55.5131 28.3087 60.9625 28.423 66.3422ZM84.8691 116.831C84.9336 117.537 84.9982 118.242 85.0783 119.156L85.0847 119.23C73.3353 109.041 60.0202 102.098 47.125 95.3774C44.2709 93.8895 41.3233 92.3535 38.4608 90.8142C38.5067 88.1717 38.57 85.5714 38.6326 83.0011C38.7817 76.8467 38.9229 71.0334 38.83 65.133C38.737 59.2089 38.4137 53.3982 38.0715 47.2464C37.9282 44.6805 37.7842 42.0906 37.6564 39.4656C38.0166 39.1987 38.3907 38.9512 38.777 38.7243C42.8996 36.3735 47.0251 34.0273 51.1529 31.6856C60.695 26.2648 70.562 20.6601 80.2203 15.0645C82.5179 13.6722 84.7374 12.1538 86.8697 10.5163C87.6018 9.97633 88.3545 9.42334 89.1292 8.8639C89.0788 9.63905 89.0278 10.3954 88.9788 11.138C88.8129 13.6116 88.656 15.9462 88.5682 18.2807C88.4927 20.2694 88.4152 22.2587 88.3364 24.2487C88.0246 32.2262 87.7025 40.4754 87.5366 48.5946C87.2203 64.0723 86.2132 80.8069 84.4572 99.7567C83.9169 105.594 84.3643 111.392 84.8691 116.831Z" fill="#ffffff"></path>
      <!-- Cross (Mute Symbol) -->
      <line x1="25" y1="25" x2="112" y2="107" stroke="#ffffff" stroke-width="12" />
      <line x1="115" y1="35" x2="25" y2="107" stroke="#ffffff" stroke-width="12" />
    </g>
    <defs>
      <clipPath id="clip0">
        <rect width="153" height="128" fill="white" transform="translate(0.777344)"></rect>
      </clipPath>
    </defs>
  </g>
</svg>
